# xmcd
#
# Track frame offsets:
#	150
#	18107
#	38243
#	55693
#	72043
#	86442
#	104522
#	117781
#	131822
#	145423
#	160754
#	177302
#
# Disc length: 2601 seconds
#
# Revision: 0
# Processed by: cddbd v1.5.1PL2 Copyright (c) Steve Scherf et al.
# Submitted via: audiograbber 1.83.01
#
DISCID=9b0a270c
DTITLE=амтфу салиоу - ваос
DYEAR=1997
DGENRE=каийа
TTITLE0=сыла йаи ьувг
TTITLE1=глаятом
TTITLE2=ваос
TTITLE3=леиме
TTITLE4=жтаиеи
TTITLE5=лиа леяа лайяиа еимаи то ауяио
TTITLE6=дем упокоцифа ти ейама
TTITLE7=дем ацапы циа лиа мувта
TTITLE8=апотекесла
TTITLE9=асе ле
TTITLE10=йи еиве ема жеццаяи
TTITLE11=сыла йаи ьувг  (INSTRUMENTAL)
EXTD=
EXTT0=
EXTT1=
EXTT2=
EXTT3=
EXTT4=
EXTT5=
EXTT6=
EXTT7=
EXTT8=
EXTT9=
EXTT10=
EXTT11=
PLAYORDER=
